<svg width="149" height="23" viewBox="0 0 149 23" fill="none" xmlns="http://www.w3.org/2000/svg">
<path d="M0.622145 18V0.954545H4.22599V7.98746H11.5419V0.954545H15.1374V18H11.5419V10.9588H4.22599V18H0.622145ZM21.6876 18.2414C20.8719 18.2414 20.1451 18.0999 19.507 17.8169C18.8689 17.5284 18.364 17.1039 17.9922 16.5435C17.626 15.9775 17.4429 15.2728 17.4429 14.4294C17.4429 13.7192 17.5733 13.1227 17.8341 12.64C18.0948 12.1573 18.45 11.7689 18.8994 11.4748C19.3488 11.1807 19.8593 10.9588 20.4308 10.8089C21.0079 10.6591 21.6127 10.5537 22.2452 10.4927C22.9888 10.415 23.588 10.3429 24.043 10.2763C24.498 10.2041 24.8281 10.0987 25.0334 9.96001C25.2387 9.82129 25.3414 9.61599 25.3414 9.3441V9.29417C25.3414 8.76705 25.1749 8.35922 24.842 8.07069C24.5146 7.78216 24.0485 7.63789 23.4437 7.63789C22.8057 7.63789 22.2979 7.77939 21.9206 8.06237C21.5433 8.3398 21.2936 8.68936 21.1716 9.11106L17.8923 8.84473C18.0588 8.06792 18.3862 7.39653 18.8744 6.83057C19.3627 6.25905 19.9925 5.82071 20.7637 5.51554C21.5406 5.20481 22.4394 5.04945 23.4604 5.04945C24.1706 5.04945 24.8503 5.13268 25.4995 5.29914C26.1543 5.4656 26.7341 5.72361 27.239 6.07317C27.7495 6.42274 28.1518 6.87218 28.4459 7.4215C28.7399 7.96527 28.887 8.61723 28.887 9.3774V18H25.5245V16.2272H25.4246C25.2193 16.6267 24.9447 16.979 24.6006 17.2842C24.2566 17.5839 23.8432 17.8197 23.3605 17.9917C22.8778 18.1581 22.3201 18.2414 21.6876 18.2414ZM22.703 15.7944C23.2246 15.7944 23.6851 15.6918 24.0846 15.4865C24.4841 15.2756 24.7976 14.9926 25.0251 14.6375C25.2526 14.2824 25.3664 13.8801 25.3664 13.4307V12.074C25.2554 12.1462 25.1028 12.2128 24.9086 12.2738C24.7199 12.3293 24.5063 12.382 24.2677 12.4319C24.0291 12.4763 23.7905 12.5179 23.5519 12.5568C23.3134 12.5901 23.097 12.6206 22.9028 12.6483C22.4866 12.7094 22.1232 12.8065 21.8124 12.9396C21.5017 13.0728 21.2604 13.2531 21.0883 13.4806C20.9163 13.7026 20.8303 13.98 20.8303 14.3129C20.8303 14.7957 21.0051 15.1646 21.3547 15.4199C21.7098 15.6696 22.1592 15.7944 22.703 15.7944ZM31.6377 5.21591H35.0252V15.1868H38.629V5.21591H42.0165V15.1868H45.6203V5.21591H49.0078V18H31.6377V5.21591ZM55.1439 13.3225L59.7465 5.21591H63.2421V18H59.863V9.86845L55.277 18H51.7564V5.21591H55.1439V13.3225ZM73.6979 22.794C73.2484 22.794 72.8267 22.758 72.4328 22.6858C72.0444 22.6193 71.7226 22.5332 71.4673 22.4278L72.2663 19.7811C72.6825 19.9087 73.057 19.9781 73.3899 19.9892C73.7284 20.0003 74.0197 19.9226 74.2638 19.7561C74.5135 19.5897 74.7161 19.3067 74.8714 18.9072L75.0795 18.3662L70.4935 5.21591H74.2222L76.8689 14.6042H77.0021L79.6738 5.21591H83.4274L78.4586 19.3816C78.22 20.0696 77.8954 20.6689 77.4848 21.1794C77.0798 21.6954 76.5665 22.0921 75.9451 22.3696C75.3236 22.6525 74.5746 22.794 73.6979 22.794ZM90.606 18.2497C89.2965 18.2497 88.1701 17.9723 87.2269 17.4174C86.2891 16.857 85.5678 16.0802 85.0629 15.087C84.5635 14.0937 84.3138 12.9507 84.3138 11.6579C84.3138 10.3484 84.5663 9.19984 85.0712 8.21218C85.5817 7.21897 86.3058 6.44493 87.2435 5.89007C88.1812 5.32966 89.2965 5.04945 90.5894 5.04945C91.7046 5.04945 92.6812 5.25198 93.519 5.65703C94.3569 6.06208 95.02 6.63081 95.5082 7.36324C95.9965 8.09566 96.2656 8.9557 96.3156 9.94336H92.9697C92.8754 9.30526 92.6257 8.79201 92.2207 8.40361C91.8212 8.00965 91.2968 7.81268 90.6476 7.81268C90.0983 7.81268 89.6183 7.96249 89.2077 8.26212C88.8027 8.5562 88.4864 8.98622 88.2589 9.55218C88.0314 10.1181 87.9177 10.8034 87.9177 11.608C87.9177 12.4236 88.0287 13.1172 88.2506 13.6887C88.4781 14.2602 88.7971 14.6958 89.2077 14.9954C89.6183 15.295 90.0983 15.4448 90.6476 15.4448C91.0527 15.4448 91.4161 15.3616 91.7379 15.1952C92.0653 15.0287 92.3344 14.7873 92.5453 14.4711C92.7616 14.1492 92.9031 13.7636 92.9697 13.3142H96.3156C96.2601 14.2907 95.9937 15.1508 95.5166 15.8943C95.0449 16.6323 94.393 17.2093 93.5607 17.6255C92.7284 18.0416 91.7435 18.2497 90.606 18.2497ZM97.8366 18L97.8199 15.1868H98.2444C98.544 15.1868 98.802 15.1147 99.0184 14.9704C99.2404 14.8206 99.4235 14.5793 99.5678 14.2463C99.712 13.9134 99.8258 13.4723 99.909 12.923C99.9922 12.3681 100.048 11.6856 100.075 10.8755L100.284 5.21591H110.005V18H106.626V8.00411H103.471L103.271 11.9076C103.222 12.9785 103.091 13.8995 102.88 14.6708C102.675 15.4421 102.389 16.0746 102.023 16.5684C101.657 17.0567 101.216 17.4174 100.7 17.6504C100.184 17.8835 99.5844 18 98.9019 18H97.8366ZM114.485 22.794C114.035 22.794 113.613 22.758 113.22 22.6858C112.831 22.6193 112.509 22.5332 112.254 22.4278L113.053 19.7811C113.469 19.9087 113.844 19.9781 114.177 19.9892C114.515 20.0003 114.806 19.9226 115.051 19.7561C115.3 19.5897 115.503 19.3067 115.658 18.9072L115.866 18.3662L111.28 5.21591H115.009L117.656 14.6042H117.789L120.461 5.21591H124.214L119.245 19.3816C119.007 20.0696 118.682 20.6689 118.272 21.1794C117.867 21.6954 117.353 22.0921 116.732 22.3696C116.11 22.6525 115.361 22.794 114.485 22.794ZM134.784 5.21591V8.00411H129.474V18H126.029V5.21591H134.784ZM140.334 13.3225L144.936 5.21591H148.432V18H145.053V9.86845L140.467 18H136.946V5.21591H140.334V13.3225Z" fill="black"/>
</svg>
